<?xml version="1.0" encoding="UTF-8"?>
<svg id="Layer_1" data-name="Layer 1" xmlns="http://www.w3.org/2000/svg" viewBox="0 0 441.57 434.5">
  <defs>
    <style>
      .cls-1 {
        fill: none;
        stroke: #231f20;
        stroke-linecap: round;
        stroke-linejoin: round;
        stroke-width: 2px;
      }
    </style>
  </defs>
  <line class="cls-1" x1="171.82" y1="71.88" x2="198.57" y2="71.88"/>
  <path class="cls-1" d="m106.84,101.43s4.89-9.24,1.63-12.36-18.61-4.21-33.68,16.03-10.87,32.5-7.61,34.11,16.84-9.39,21.73-14.28c4.89-4.89,30.15-34.64,30.15-34.64,0,0-41.56,59.36-57.73,75.65-16.16,16.3-19.29,17.52-23.5,15.89s-1.09-11,10.73-22.28c11.82-11.27,22.85-17.82,28.99-19.29,6.14-1.46,17.87-.81,29.69-13.85s13.58-16.03,19.83-16.16,19.02-2.85,24.31-8.01,12.77-11.5,5.57-14.92-22.41,7.72-28.79,17.23-20.65,23.91-12.63,33.55c8.01,9.64,46.59-28.39,55.42-38.98,8.83-10.59,22.55-31.65,22.55-31.65,0,0-51.21,62.75-46.59,70.76,4.62,8.01,33.68-28.66,33.68-28.66"/>
  <path class="cls-1" d="m229.62,89.49s-32.77,37.04-26.57,46.15c6.21,9.11,51-44.99,51-44.99,0,0-39.43,54.65-46.88,63.66-7.45,9.01-26.68,26.77-31.45,25.04-4.76-1.73,1.65-13.58,6.63-18.56,4.98-4.98,18.84-17.89,27.01-20.62s17.77-1.3,25.71-8.18c7.94-6.87,17.06-16.11,17.06-16.11"/>
  <path class="cls-1" d="m291,88.16c-3.01-3.22-18.25.83-32.94,20.14-14.69,19.31-7.82,27.94-6.64,29.31s9.6,5.05,25.59-15.33c16-20.38,19.08-28.67,13.98-34.12Z"/>
  <path class="cls-1" d="m282.08,116.82s4.92,1.75,10.5-2.63c5.58-4.38,21.66-25.82,21.66-25.82,0,0-33.37,38.4-30.53,46.83,2.84,8.42,18.82-8.75,23.63-14.11,4.81-5.36,27.79-33.37,27.79-33.37,0,0-34.25,42.12-29.98,48.58,4.27,6.46,23.3-13.02,29.1-20.02s20.79-25.16,22.43-30.42c1.64-5.25-.22-6.67-3.06-6.02s-3.5,10.83,6.78,9.19,9.85-2.36,11.16.46-19.68,22.15-25.71,32.04-2.52,15.43,2.19,15.21,27.79-27.46,27.79-27.46"/>
  <path class="cls-1" d="m50.63,280.41s66.83-90.21,71.63-98,16.02-24.98,22.85-23.28,1.99,12.94-3.41,18.63-14.17,17.24-27.7,18.59"/>
  <path class="cls-1" d="m74.52,232.25s12.13,4.52,23.25,1.14,18.38-8.8,18.38-8.8"/>
  <path class="cls-1" d="m152.74,200.75c-5.64-3.84-19.07.79-36.59,23.84-17.32,22.8.67,24.96,8.53,19.85,3.91-2.54,41.62-34.45,28.05-43.69Z"/>
  <path class="cls-1" d="m144.17,227.94s5.19,2.04,13.79-8.23c8.6-10.27,17.26-21.81,15.75-26.27s-4.46-1.89-4.24,1.66.68,7.41,6.66,6.81,7.79-2.5,10.44-.91-19.81,24.2-22.92,31.76-5.67,11.95-.61,15.35c5.07,3.4,30.11-23.97,35.57-31.04,5.45-7.07,27.86-36.85,27.86-36.85,0,0-48.34,59.16-45.69,66.5,2.65,7.34,40.12-30,48.23-43.56,8.11-13.56-30.98,39.17-28.77,43.56s11.64-1.51,20.04-9.91c8.4-8.4,32.42-35.67,32.42-35.67,0,0-33.6,40-30.95,45.57s21.96-10.16,32.13-23.59c10.17-13.43,20.78-27.57,23.88-23.59s-2.8,16.21-9.43,26.96c-6.63,10.76-14.44,20.22-14.44,20.22,0,0,33.01-45.71,42.74-47.19s5.16,11.49,2.06,16.06-23.43,24.97-20.34,31.13c3.1,6.16,32.94-23.21,32.94-23.21,0,0-1.11-.26,8.91-2.47s25.5-10.49,26.68-16.68c1.18-6.19-2.1-12.17-15.77-2.48-13.62,9.66-19.99,21.12-25.06,31.39-4.78,9.7-3.24,15.65,2.65,15.12,5.9-.53,15.48-6.87,20.93-11.29,5.45-4.42,17.24-16.8,17.24-16.8"/>
  <line class="cls-1" x1="202.86" y1="193.77" x2="231.55" y2="193.77"/>
  <path class="cls-1" d="m291.18,271.07s-49.24,58.92-44.41,67.73c4.84,8.81,41.27-35.04,45.44-39.39,4.17-4.36,12.42-13.5,20.75-9.75s.64,20.04-10.43,31.02c-11.07,10.98-20.04,22.6-27.18,19.67-7.14-2.93-.09-18.94,2.2-22.51s9.77-12.77,9.77-12.77"/>
  <path class="cls-1" d="m305.84,318.61s4.3,2.68,12.43-5.12c8.13-7.79,43.36-56.03,43.36-56.03,0,0-58.63,74.23-54.88,80.56,3.75,6.33,26.15-18.18,26.15-18.18"/>
  <path class="cls-1" d="m376.87,298.27s1.52-7.27-1.88-8.67-15.83-.23-27.32,13.13c-11.49,13.37-21.34,25.31-14.31,36.34,7.04,11.03,46.29-38.85,50.14-43.54s27.99-38.07,27.99-38.07c0,0-60.83,73.7-54.63,81.61s32.51-27.95,32.51-27.95"/>
  <line class="cls-1" x1="274.63" y1="278.21" x2="301.98" y2="278.21"/>
</svg>