<?xml version="1.0" encoding="UTF-8"?>
<svg id="Layer_2" data-name="Layer 2" xmlns="http://www.w3.org/2000/svg" viewBox="0 0 478.27 80.6">
  <defs>
    <style>
      .cls-1 {
        fill: none;
        stroke: #231f20;
        stroke-linecap: round;
        stroke-linejoin: round;
        stroke-width: 2px;
      }
    </style>
  </defs>
  <path class="cls-1" d="m41.59,33.18s2.8-5.3.93-7.09-10.67-2.41-19.32,9.19-6.23,18.64-4.36,19.56,9.66-5.39,12.46-8.19,17.29-19.86,17.29-19.86c0,0-23.84,34.04-33.1,43.39s-11.06,10.05-13.48,9.11-.62-6.31,6.15-12.77,13.11-10.22,16.63-11.06,10.25-.47,17.02-7.95,7.79-9.19,11.37-9.27,10.91-1.64,13.94-4.6,7.32-6.6,3.19-8.56-12.85,4.43-16.51,9.88-11.84,13.71-7.24,19.24,26.72-16.28,31.78-22.36,12.93-18.15,12.93-18.15c0,0-29.37,35.99-26.72,40.58s19.32-16.44,19.32-16.44"/>
  <line class="cls-1" x1="81.01" y1="18.14" x2="96.35" y2="18.14"/>
  <path class="cls-1" d="m112.51,26.67s-19.18,21.68-15.55,27.01,29.85-26.33,29.85-26.33c0,0-23.08,31.99-27.44,37.26s-15.62,15.67-18.41,14.65.97-7.95,3.88-10.86,11.03-10.47,15.81-12.07,10.4-.76,15.05-4.79,9.99-9.43,9.99-9.43"/>
  <path class="cls-1" d="m148.44,25.9c-1.76-1.88-10.68.49-19.28,11.79s-4.58,16.36-3.88,17.16,5.62,2.95,14.98-8.98,11.17-16.78,8.18-19.97Z"/>
  <path class="cls-1" d="m143.22,42.67s2.88,1.02,6.15-1.54,12.68-15.11,12.68-15.11c0,0-19.53,22.48-17.87,27.41s11.01-5.12,13.83-8.26,16.27-19.53,16.27-19.53c0,0-20.04,24.66-17.55,28.43s13.64-7.62,17.03-11.72,12.17-14.73,13.13-17.8-.13-3.91-1.79-3.52-2.05,6.34,3.97,5.38,5.76-1.38,6.53.27-11.52,12.96-15.05,18.75-1.47,9.03,1.28,8.9,16.27-16.07,16.27-16.07"/>
  <path class="cls-1" d="m192.34,73.97s40.17-54.22,43.06-58.91S245.03.05,249.13,1.07s1.2,7.78-2.05,11.2-8.52,10.36-16.65,11.17"/>
  <path class="cls-1" d="m206.7,45.02s7.29,2.71,13.98.69,11.05-5.29,11.05-5.29"/>
  <path class="cls-1" d="m253.71,26.09c-3.39-2.31-11.46.47-21.99,14.33s.4,15,5.13,11.93c2.35-1.53,25.02-20.71,16.86-26.26Z"/>
  <path class="cls-1" d="m248.56,42.43s3.12,1.23,8.29-4.95,10.38-13.11,9.47-15.79-2.68-1.14-2.55,1,.41,4.45,4,4.09,4.68-1.5,6.27-.55-11.91,14.55-13.77,19.09-3.41,7.18-.36,9.23,18.1-14.41,21.38-18.66,16.74-22.15,16.74-22.15c0,0-29.06,35.56-27.46,39.97s24.12-18.03,28.99-26.18-18.62,23.55-17.3,26.18,7-.9,12.05-5.95,19.49-21.44,19.49-21.44c0,0-20.2,24.05-18.6,27.39s13.2-6.11,19.31-14.18,12.49-16.57,14.35-14.18-1.68,9.74-5.67,16.21-8.68,12.16-8.68,12.16c0,0,19.84-27.47,25.69-28.36s3.1,6.91,1.24,9.65-14.09,15.01-12.23,18.71,19.8-13.95,19.8-13.95c0,0-.67-.16,5.36-1.48s15.33-6.31,16.04-10.03-1.26-7.32-9.48-1.49-12.02,12.69-15.06,18.87c-2.87,5.83-1.95,9.41,1.59,9.09s9.3-4.13,12.58-6.79,10.37-10.1,10.37-10.1"/>
  <path class="cls-1" d="m407.28,14.78s-28.65,34.27-25.83,39.4,24.01-20.38,26.43-22.92,7.23-7.85,12.07-5.67.37,11.66-6.07,18.04-11.66,13.15-15.81,11.44-.05-11.02,1.28-13.09,5.68-7.43,5.68-7.43"/>
  <path class="cls-1" d="m415.81,42.43s2.5,1.56,7.23-2.98,25.22-32.59,25.22-32.59c0,0-34.11,43.18-31.92,46.86s15.21-10.57,15.21-10.57"/>
  <path class="cls-1" d="m457.13,30.6s.89-4.23-1.09-5.05-9.21-.14-15.89,7.64-12.42,14.72-8.32,21.14,26.93-22.6,29.17-25.33,16.28-22.15,16.28-22.15c0,0-35.39,42.87-31.78,47.47s18.91-16.26,18.91-16.26"/>
  <line class="cls-1" x1="397.66" y1="18.93" x2="413.57" y2="18.93"/>
  <line class="cls-1" x1="283.84" y1="23.01" x2="301.09" y2="23.01"/>
</svg>